<?xml version="1.0" standalone="no"?>
<!DOCTYPE svg PUBLIC "-//W3C//DTD SVG 20010904//EN"
 "http://www.w3.org/TR/2001/REC-SVG-20010904/DTD/svg10.dtd">
<svg version="1.0" xmlns="http://www.w3.org/2000/svg"
 width="225.000000pt" height="225.000000pt" viewBox="0 0 225.000000 225.000000"
 preserveAspectRatio="xMidYMid meet">

<g transform="translate(0.000000,225.000000) scale(0.100000,-0.100000)"
fill="#000000" stroke="none">
<path d="M1003 2132 c-182 -65 -278 -242 -290 -539 -5 -118 -8 -133 -24 -138
-29 -9 -78 -54 -94 -86 -23 -44 -19 -130 8 -170 37 -55 81 -79 147 -79 102 0
170 68 170 170 0 67 -25 111 -84 150 l-39 25 7 111 c17 310 127 476 316 477
79 1 132 -23 184 -84 65 -77 106 -237 106 -416 0 -88 -1 -94 -23 -102 -71 -27
-118 -124 -97 -202 21 -80 86 -129 170 -129 62 0 100 18 135 65 66 86 32 225
-66 265 -29 12 -30 15 -25 54 9 59 -10 259 -33 336 -39 137 -106 231 -195 278
-69 35 -196 41 -273 14z m-202 -791 c16 -16 29 -39 29 -51 0 -28 -52 -80 -80
-80 -25 0 -80 51 -80 74 0 27 22 64 44 74 35 18 56 13 87 -17z m697 13 c49
-34 48 -97 -2 -130 -75 -48 -155 58 -91 121 28 29 61 32 93 9z"/>
<path d="M397 1725 c-50 -17 -85 -50 -108 -100 -19 -43 -20 -58 -59 -735 -12
-195 -25 -411 -29 -480 -11 -185 9 -244 101 -291 36 -18 70 -19 824 -19 862 0
819 -3 879 60 50 52 53 92 34 430 -9 168 -24 451 -34 630 -9 179 -21 342 -26
363 -11 42 -59 101 -98 121 -31 16 -170 31 -205 22 -37 -9 -51 -41 -31 -72 14
-22 22 -24 91 -24 86 0 126 -16 142 -57 11 -26 18 -140 57 -843 8 -146 17
-311 21 -366 l6 -102 -30 -33 -30 -34 -777 0 -777 0 -30 34 c-30 34 -30 34
-24 125 3 50 13 206 21 346 8 140 24 397 34 570 l20 315 31 27 c27 25 38 28
98 28 40 0 73 5 80 12 19 19 14 55 -10 72 -28 20 -118 20 -171 1z"/>
<path d="M962 1718 c-17 -17 -15 -53 3 -68 23 -19 259 -27 280 -10 22 18 19
67 -4 80 -28 15 -264 13 -279 -2z"/>
<path d="M542 458 l3 -23 580 0 580 0 3 23 3 22 -586 0 -586 0 3 -22z"/>
</g>
</svg>
