<?xml version="1.0" standalone="no"?>
<!DOCTYPE svg PUBLIC "-//W3C//DTD SVG 20010904//EN"
 "http://www.w3.org/TR/2001/REC-SVG-20010904/DTD/svg10.dtd">
<svg version="1.0" xmlns="http://www.w3.org/2000/svg"
 width="128.000000pt" height="128.000000pt" viewBox="0 0 128.000000 128.000000"
 preserveAspectRatio="xMidYMid meet">

<g transform="translate(0.000000,128.000000) scale(0.100000,-0.100000)"
fill="#000000" stroke="none">
<path d="M555 1271 c-151 -25 -251 -76 -360 -186 -132 -131 -188 -265 -188
-445 0 -180 56 -314 188 -445 131 -132 265 -188 445 -188 180 0 314 56 445
188 132 131 188 265 188 445 0 180 -56 314 -188 445 -120 121 -242 177 -410
189 -38 2 -92 1 -120 -3z m443 -323 c15 -15 15 -51 0 -66 -17 -17 -699 -17
-716 0 -15 15 -15 51 0 66 17 17 699 17 716 0z m0 -180 c15 -15 15 -61 0 -76
-9 -9 -101 -12 -352 -12 -302 0 -341 2 -358 17 -21 18 -24 53 -6 71 17 17 699
17 716 0z m0 -180 c15 -15 15 -61 0 -76 -17 -17 -699 -17 -716 0 -15 15 -15
61 0 76 17 17 699 17 716 0z m-7 -178 c22 -12 26 -59 7 -78 -17 -17 -699 -17
-716 0 -18 18 -15 65 6 77 24 14 677 15 703 1z"/>
</g>
</svg>
