<?xml version="1.0" standalone="no"?>
<!DOCTYPE svg PUBLIC "-//W3C//DTD SVG 20010904//EN"
 "http://www.w3.org/TR/2001/REC-SVG-20010904/DTD/svg10.dtd">
<svg version="1.0" xmlns="http://www.w3.org/2000/svg"
 width="416.000000pt" height="416.000000pt" viewBox="0 0 416.000000 416.000000"
 preserveAspectRatio="xMidYMid meet">

<g transform="translate(0.000000,416.000000) scale(0.100000,-0.100000)"
fill="#000000" stroke="none">
<path d="M1876 3829 c-736 -85 -1360 -649 -1514 -1370 -81 -375 -39 -769 118
-1116 195 -431 598 -789 1052 -937 198 -65 305 -81 548 -81 184 0 231 3 328
23 237 48 453 137 647 267 398 266 661 662 757 1137 20 97 23 144 23 328 0
184 -3 231 -23 328 -155 767 -768 1333 -1537 1422 -102 11 -297 11 -399 -1z
m444 -154 c517 -79 961 -399 1199 -866 234 -459 235 -994 2 -1457 -52 -104
-144 -241 -223 -332 -63 -73 -215 -217 -222 -209 -1 2 -13 29 -25 60 -63 160
-256 386 -413 483 -541 335 -1217 136 -1508 -445 l-49 -99 -71 62 c-265 228
-460 581 -522 943 -27 159 -22 437 11 588 143 666 670 1168 1336 1272 112 18
370 18 485 0z"/>
<path d="M2025 2954 c-164 -20 -301 -87 -408 -198 -64 -66 -109 -143 -143
-241 -25 -70 -28 -95 -28 -200 0 -108 3 -128 30 -205 38 -108 86 -181 174
-263 75 -71 175 -127 275 -152 75 -19 243 -19 313 -1 237 64 418 252 469 490
19 91 12 237 -16 326 -63 200 -245 373 -446 423 -66 17 -173 27 -220 21z"/>
</g>
</svg>
